<?xml version="1.0" encoding="utf-8"?>
<!-- Generator: Adobe Illustrator 23.0.2, SVG Export Plug-In . SVG Version: 6.00 Build 0)  -->
<svg version="1.1" id="Слой_1" xmlns="http://www.w3.org/2000/svg" xmlns:xlink="http://www.w3.org/1999/xlink" x="0px" y="0px"
	 viewBox="0 0 100 100" style="enable-background:new 0 0 100 100;" xml:space="preserve">
<style type="text/css">
	.st0{fill:#5CBF66;}
</style>
<g>
	<path class="st0" d="M44.1,93.4c-1.5,0-2.9-0.7-3.9-1.9l-36.3-45c-1.7-2.1-1.4-5.3,0.7-7c0.9-0.7,2-1.1,3.1-1.1
		c1.5,0,2.9,0.7,3.9,1.9l36.3,45c1.7,2.1,1.4,5.3-0.7,7C46.4,93,45.3,93.4,44.1,93.4L44.1,93.4z"/>
	<path class="st0" d="M7.8,38.9c1.4,0,2.6,0.6,3.5,1.7l36.3,45c0.8,0.9,1.1,2.1,1,3.3c-0.1,1.2-0.7,2.3-1.6,3c-0.8,0.7-1.8,1-2.8,1
		c-1.4,0-2.6-0.6-3.5-1.7l-36.3-45c-0.8-0.9-1.1-2.1-1-3.3c0.1-1.2,0.7-2.3,1.6-3C5.8,39.3,6.7,38.9,7.8,38.9 M7.8,37.9
		c-1.2,0-2.4,0.4-3.5,1.2l0,0c-2.4,1.9-2.7,5.4-0.8,7.7l36.3,45c1.1,1.3,2.7,2,4.3,2c1.2,0,2.4-0.4,3.5-1.2l0,0
		c2.4-1.9,2.7-5.4,0.8-7.7L12.1,40C11,38.6,9.4,37.9,7.8,37.9L7.8,37.9z"/>
</g>
<g>
	<path class="st0" d="M44.5,93.5c-0.9,0-1.8-0.2-2.5-0.7c-2.4-1.4-3.2-4.5-1.8-6.8L88,5c0.9-1.5,2.5-2.5,4.3-2.5
		c0.9,0,1.8,0.2,2.5,0.7c1.1,0.7,2,1.8,2.3,3.1c0.3,1.3,0.1,2.6-0.5,3.8L48.8,91C47.9,92.5,46.3,93.5,44.5,93.5L44.5,93.5z"/>
	<path class="st0" d="M92.3,3.1c0.8,0,1.6,0.2,2.3,0.6c1,0.6,1.8,1.6,2.1,2.8c0.3,1.2,0.1,2.4-0.5,3.4L48.4,90.7
		c-0.8,1.4-2.3,2.2-3.9,2.2c-0.8,0-1.6-0.2-2.3-0.6c-2.1-1.3-2.8-4-1.6-6.2L88.5,5.3C89.3,3.9,90.8,3.1,92.3,3.1 M92.3,2.1
		c-1.9,0-3.7,1-4.7,2.7L39.8,85.7c-1.5,2.6-0.7,6,1.9,7.5h0c0.9,0.5,1.8,0.8,2.8,0.8c1.9,0,3.7-1,4.7-2.7l47.8-80.9
		c1.5-2.6,0.7-6-1.9-7.5v0C94.3,2.3,93.3,2.1,92.3,2.1L92.3,2.1z"/>
</g>
</svg>
